#!OML:ASF E:\emotionWalksFemale\Project 1\Capture day 1\Session 1\Female1.ASF
:FULLY-SPECIFIED
:DEGREES
166
root 7.9414 15.4681 21.7217 -179.297 4.38727 -179.964
lowerback 6.07601 0.564702 0.3404
upperback -5.31453 0.993627 0.460783
thorax -9.0322 0.547254 0.149229
lowerneck -10.0249 -1.929 -5.37902
upperneck 7.76532 -2.2756 4.66876
head 4.07019 -1.02272 2.15977
rclavicle 4.84538e-015 -1.39149e-015
rhumerus 9.48098 -1.16663 -41.9168
rradius 33.5317
rwrist 30.4012
rhand 2.65028 -50.6488
rfingers 7.12502
rthumb 28.1263 -78.5595
lclavicle 4.84538e-015 -1.39149e-015
lhumerus 18.6375 39.8377 55.3958
lradius 27.5612
lwrist -23.4816
lhand -8.29006 -50.3593
lfingers 7.12502
lthumb 17.6297 -21.1386
rfemur 4.67034 22.7665 28.0993
rtibia 12.8777
rfoot -20.3059 -35.56
rtoes 8.55068
lfemur -2.10362 -23.0258 -24.8853
ltibia 23.0255
lfoot -25.4512 19.8736
ltoes -16.3813
167
root 7.94357 15.4671 21.7083 -179.287 4.58062 -179.98
lowerback 6.12519 0.599837 0.239242
upperback -5.35944 1.03635 0.489507
thorax -9.11288 0.576618 0.229326
lowerneck -9.98101 -1.89543 -5.28619
upperneck 7.72914 -2.22662 4.47173
head 4.04609 -1.00776 2.08726
rclavicle 2.65874e-015 7.95139e-016
rhumerus 11.7091 -1.89627 -39.9403
rradius 33.8832
rwrist 29.0033
rhand 2.6358 -52.0698
rfingers 7.12502
rthumb 28.1125 -79.9827
lclavicle 2.65874e-015 7.95139e-016
lhumerus 23.1324 41.9102 56.5459
lradius 27.1526
lwrist -24.5162
lhand -9.15772 -50.9852
lfingers 7.12502
lthumb 16.7946 -21.6916
rfemur 4.68734 22.8782 28.0858
rtibia 12.8687
rfoot -20.0837 -35.5735
rtoes 7.90718
lfemur -2.03287 -23.0949 -24.9479
ltibia 23.0407
lfoot -25.4694 19.9278
ltoes -15.4628
168
root 7.94543 15.4678 21.6939 -179.226 4.7505 -179.938
lowerback 5.99688 0.596061 0.211289
upperback -5.36012 1.03415 0.54109
thorax -9.03918 0.580517 0.301541
lowerneck -9.82778 -1.83504 -5.29358
upperneck 7.53865 -2.14102 4.39233
head 3.95769 -0.972354 2.07021
rclavicle 3.55328e-015 -9.93923e-016
rhumerus 13.9884 -2.66571 -37.9839
rradius 34.2424
rwrist 27.6017
rhand 2.39626 -52.5082
rfingers 7.12502
rthumb 27.8835 -80.4585
lclavicle 3.55328e-015 -9.93923e-016
lhumerus 27.5549 43.8434 57.7262
lradius 26.9403
lwrist -25.2177
lhand -9.86502 -51.5485
lfingers 7.12502
lthumb 16.1136 -22.1984
rfemur 4.64953 23.0663 28.1319
rtibia 12.8928
rfoot -20.0435 -35.6199
rtoes 7.88332
lfemur -2.04478 -23.014 -24.8931
ltibia 23.0526
lfoot -25.5321 19.8523
ltoes -14.776
169
root 7.9453 15.4698 21.6763 -179.168 4.91517 -179.956
lowerback 5.82321 0.597504 0.174635
upperback -5.32766 1.03429 0.578596
thorax -8.90238 0.584753 0.364305
lowerneck -9.87399 -1.80059 -5.4058
upperneck 7.47272 -2.08118 4.44274
head 3.94391 -0.943261 2.10752
rclavicle -5.93869e-015 -1.0138e-014
rhumerus 16.2095 -3.70495 -35.9491
rradius 34.4999
rwrist 26.1792
rhand 1.74478 -51.464
rfingers 7.12502
rthumb 27.2605 -79.5138
lclavicle -5.93869e-015 -1.0138e-014
lhumerus 30.0159 43.6744 56.5114
lradius 27.3127
lwrist -23.0553
lhand -10.2479 -51.3734
lfingers 7.12502
lthumb 15.7449 -21.9938
rfemur 4.67758 23.2301 28.1107
rtibia 12.9021
rfoot -20.5228 -35.4583
rtoes 8.90924
lfemur -2.02939 -22.9901 -24.932
ltibia 23.0791
lfoot -25.6121 19.9072
ltoes -14.8831
170
root 7.94518 15.4725 21.6593 -179.062 4.99783 -179.996
lowerback 5.86492 0.605811 0.124911
upperback -5.44729 1.05003 0.571257
thorax -9.05868 0.598923 0.380357
lowerneck -9.91532 -1.80047 -5.47084
upperneck 7.59011 -2.07661 4.49048
head 3.98747 -0.93977 2.13304
rclavicle 7.85199e-015 3.97569e-015
rhumerus 18.0991 -4.89377 -33.9854
rradius 34.669
rwrist 24.7417
rhand 0.726633 -51.5236
rfingers 7.12502
rthumb 26.2862 -79.7225
lclavicle 7.85199e-015 3.97569e-015
lhumerus 31.1724 42.7846 53.9373
lradius 28.0741
lwrist -19.8231
lhand -10.8715 -50.9506
lfingers 7.12502
lthumb 15.1443 -21.5247
rfemur 4.63865 23.3549 28.0484
rtibia 12.9202
rfoot -20.8073 -35.3702
rtoes 9.21783
lfemur -2.09237 -22.9468 -24.9516
ltibia 23.1057
lfoot -25.4329 19.9186
ltoes -15.7027
171
root 7.94618 15.4731 21.6424 -178.968 5.01946 -180.026
lowerback 6.15676 0.588274 0.0744401
upperback -5.72797 1.04082 0.537751
thorax -9.54037 0.603785 0.36726
lowerneck -9.66963 -1.76148 -5.45021
upperneck 7.68464 -2.04284 4.5292
head 3.9744 -0.922242 2.14525
rclavicle -3.57812e-015 7.35503e-015
rhumerus 19.6544 -5.566 -32.0306
rradius 35.1335
rwrist 23.0671
rhand 0.322532 -53.5832
rfingers 7.12502
rthumb 25.8993 -81.8392
lclavicle -3.57812e-015 7.35503e-015
lhumerus 34.1913 43.3271 53.6734
lradius 28.0794
lwrist -19.0542
lhand -11.7366 -50.9042
lfingers 7.12502
lthumb 14.3108 -21.4174
rfemur 4.5895 23.4448 28.0164
rtibia 12.9661
rfoot -20.8331 -35.3955
rtoes 9.03555
lfemur -2.15202 -22.9199 -24.9437
ltibia 23.125
lfoot -25.1604 19.8879
ltoes -16.9949
172
root 7.94714 15.4727 21.6219 -178.974 5.08523 -180.022
lowerback 5.95723 0.597391 0.093161
upperback -5.66242 1.04681 0.493176
thorax -9.34826 0.602703 0.311976
lowerneck -9.5325 -1.72086 -5.29286
upperneck 7.5558 -2.00689 4.46163
head 3.90846 -0.904875 2.10166
rclavicle -6.75868e-015 4.37326e-015
rhumerus 21.4133 -7.118 -30.356
rradius 35.4197
rwrist 22.102
rhand 0.796313 -52.3693
rfingers 7.12502
rthumb 26.3529 -80.5583
lclavicle -6.75868e-015 4.37326e-015
lhumerus 38.7116 44.7177 55.1018
lradius 27.8473
lwrist -19.2566
lhand -12.2966 -51.1751
lfingers 7.12502
lthumb 13.7712 -21.6508
rfemur 4.7298 23.5475 28.0724
rtibia 12.9604
rfoot -21.0787 -35.317
rtoes 9.59924
lfemur -2.03606 -23.0359 -24.9947
ltibia 23.1773
lfoot -25.328 19.9092
ltoes -16.8307
173
root 7.94802 15.4753 21.599 -178.971 5.21075 -179.972
lowerback 4.93912 0.601912 0.466665
upperback -5.08122 1.02587 0.261293
thorax -8.10274 0.550278 -0.118092
lowerneck -9.78541 -1.70557 -4.97942
upperneck 7.20435 -2.00994 4.45287
head 3.83984 -0.895503 2.04625
rclavicle 2.69726e-014 5.66536e-015
rhumerus 23.4572 -9.52124 -29.271
rradius 35.5798
rwrist 21.2786
rhand 0.81917 -50.4607
rfingers 7.12502
rthumb 26.3748 -78.6464
lclavicle 2.69726e-014 5.66536e-015
lhumerus 45.3969 46.7314 58.5589
lradius 27.4297
lwrist -20.4688
lhand -12.883 -51.8667
lfingers 7.12502
lthumb 13.206 -22.3049
rfemur 4.89104 23.6495 28.1623
rtibia 12.9428
rfoot -21.3664 -35.1655
rtoes 10.2494
lfemur -1.91754 -23.163 -25.0232
ltibia 23.2534
lfoot -25.4394 20.0775
ltoes -16.8118
174
root 7.94928 15.4814 21.5774 -178.916 5.34558 -179.93
lowerback 5.77037 0.647187 0.175595
upperback -5.64782 1.12119 0.475083
thorax -9.21984 0.633658 0.239003
lowerneck -9.5549 -1.735 -5.15782
upperneck 7.70004 -2.02775 4.27196
head 3.95383 -0.921028 2.02002
rclavicle 7.95139e-015 -2.98177e-015
rhumerus 24.5448 -9.97017 -27.0081
rradius 36.1023
rwrist 19.6968
rhand 0.49727 -50.1402
rfingers 7.12502
rthumb 26.0666 -78.3717
lclavicle 7.95139e-015 -2.98177e-015
lhumerus 47.4358 47.0502 58.0446
lradius 27.578
lwrist -19.242
lhand -13.426 -52.4282
lfingers 7.12502
lthumb 12.6825 -22.8333
rfemur 4.93617 23.6801 28.1931
rtibia 12.9575
rfoot -21.3426 -35.0237
rtoes 10.3074
lfemur -1.87473 -23.293 -25.0312
ltibia 23.3291
lfoot -25.274 20.2261
ltoes -17.174
175
root 7.94905 15.4824 21.5556 -178.881 5.45043 -179.918
lowerback 5.92024 0.650874 0.204587
upperback -5.78747 1.13845 0.450066
thorax -9.46143 0.642471 0.18968
lowerneck -9.33964 -1.73099 -5.20018
upperneck 7.69514 -2.03011 4.32342
head 3.91801 -0.922368 2.04374
rclavicle -1.49089e-016 5.96354e-016
rhumerus 25.9205 -11.0696 -25.3007
rradius 36.4491
rwrist 18.293
rhand 0.17956 -50.6479
rfingers 7.12502
rthumb 25.7623 -78.9238
lclavicle -1.49089e-016 5.96354e-016
lhumerus 49.9489 47.3495 57.3846
lradius 27.684
lwrist -17.8943
lhand -14.3458 -52.7456
lfingers 7.12502
lthumb 11.7957 -23.0978
rfemur 5.00366 23.7681 28.2101
rtibia 12.9469
rfoot -21.4449 -34.9396
rtoes 10.8444
lfemur -1.82407 -23.4481 -25.0717
ltibia 23.4204
lfoot -25.1532 20.3135
ltoes -17.5481
